<svg width="20" height="20" viewBox="0 0 17 17" fill="none" xmlns="http://www.w3.org/2000/svg">
  <rect style="fill: #ef4444" width="16.256" height="16.256"></rect>
  <path style="fill: white"
    d="M8.25808 10.514C7.52355 10.514 6.8521 10.3359 6.2437 9.97976C5.63531 9.6162 5.14934 9.13394 4.78579 8.53297C4.42965 7.92458 4.25159 7.24941 4.25159 6.50747C4.25159 5.78036 4.43707 5.11261 4.80804 4.50422C5.17902 3.89583 5.6687 3.40986 6.27709 3.0463C6.88548 2.68275 7.54581 2.50098 8.25808 2.50098C8.9926 2.50098 9.66035 2.68275 10.2613 3.0463C10.8697 3.40244 11.3557 3.8847 11.7192 4.49309C12.0828 5.09407 12.2646 5.76552 12.2646 6.50747C12.2646 7.24941 12.0828 7.92458 11.7192 8.53297C11.3557 9.13394 10.8697 9.6162 10.2613 9.97976C9.66035 10.3359 8.9926 10.514 8.25808 10.514ZM8.25808 9.03378C8.71808 9.03378 9.13728 8.91878 9.51567 8.68878C9.90148 8.45877 10.2094 8.15458 10.4394 7.77619C10.6694 7.39038 10.7844 6.96747 10.7844 6.50747C10.7844 6.04746 10.6694 5.62826 10.4394 5.24987C10.2094 4.86406 9.90148 4.55616 9.51567 4.32615C9.13728 4.09615 8.71808 3.98115 8.25808 3.98115C7.79807 3.98115 7.37516 4.09615 6.98935 4.32615C6.61096 4.55616 6.30677 4.86406 6.07677 5.24987C5.84676 5.62826 5.73176 6.04746 5.73176 6.50747C5.73176 6.96747 5.84676 7.39038 6.07677 7.77619C6.30677 8.15458 6.61096 8.45877 6.98935 8.68878C7.37516 8.91878 7.79807 9.03378 8.25808 9.03378Z"></path>
  <path style="fill: white"
    d="M4.85162 12.3145L5.21456 13.6689L11.6645 11.9407L11.3016 10.5862L4.85162 12.3145Z"></path>
</svg>